<?xml version="1.0" encoding="UTF-8"?><svg id="b" xmlns="http://www.w3.org/2000/svg" viewBox="0 0 5731.81 2025.77"><defs><style>.d{fill:#f2dfd9;}.d,.e,.f,.g{stroke-width:0px;}.e{fill:#18a999;}.f{fill:#eac9bf;}.h{fill:#002;font-family:GeistMono-Medium, 'Geist Mono';font-size:768px;font-variation-settings:'wght' 500;font-weight:500;}.g{fill:#1e8e7e;}</style></defs><g id="c"><path class="g" d="M442.8,1077.87l206.96,358.47c10.61,18.37,34.1,24.67,52.47,14.06l823.76-475.6,236.18,45.28c9.32,1.79,15.31-9.58,8.56-16.26l-176.28-174.44-180.31-312.31c-10.61-18.37-34.1-24.67-52.47-14.06l-904.81,522.39c-18.37,10.61-24.67,34.1-14.06,52.47Z"/><path class="g" d="M446.8,1077.87l206.96,358.47c10.61,18.37,34.1,24.67,52.47,14.06l823.76-475.6,236.18,45.28c9.32,1.79,15.31-9.58,8.56-16.26l-176.28-174.44-180.31-312.31c-10.61-18.37-34.1-24.67-52.47-14.06l-904.81,522.39c-18.37,10.61-24.67,34.1-14.06,52.47Z"/><path class="g" d="M450.8,1077.87l206.96,358.47c10.61,18.37,34.1,24.67,52.47,14.06l823.76-475.6,236.18,45.28c9.32,1.79,15.31-9.58,8.56-16.26l-176.28-174.44-180.31-312.31c-10.61-18.37-34.1-24.67-52.47-14.06l-904.81,522.39c-18.37,10.61-24.67,34.1-14.06,52.47Z"/><path class="g" d="M454.8,1077.87l206.96,358.47c10.61,18.37,34.1,24.67,52.47,14.06l823.76-475.6,236.18,45.28c9.32,1.79,15.31-9.58,8.56-16.26l-176.28-174.44-180.31-312.31c-10.61-18.37-34.1-24.67-52.47-14.06l-904.81,522.39c-18.37,10.61-24.67,34.1-14.06,52.47Z"/><path class="g" d="M458.8,1077.87l206.96,358.47c10.61,18.37,34.1,24.67,52.47,14.06l823.76-475.6,236.18,45.28c9.32,1.79,15.31-9.58,8.56-16.26l-176.28-174.44-180.31-312.31c-10.61-18.37-34.1-24.67-52.47-14.06l-904.81,522.39c-18.37,10.61-24.67,34.1-14.06,52.47Z"/><path class="g" d="M462.8,1077.87l206.96,358.47c10.61,18.37,34.1,24.67,52.47,14.06l823.76-475.6,236.18,45.28c9.32,1.79,15.31-9.58,8.56-16.26l-176.28-174.44-180.31-312.31c-10.61-18.37-34.1-24.67-52.47-14.06l-904.81,522.39c-18.37,10.61-24.67,34.1-14.06,52.47Z"/><path class="g" d="M466.8,1077.87l206.96,358.47c10.61,18.37,34.1,24.67,52.47,14.06l823.76-475.6,236.18,45.28c9.32,1.79,15.31-9.58,8.56-16.26l-176.28-174.44-180.31-312.31c-10.61-18.37-34.1-24.67-52.47-14.06l-904.81,522.39c-18.37,10.61-24.67,34.1-14.06,52.47Z"/><path class="g" d="M470.8,1077.87l206.96,358.47c10.61,18.37,34.1,24.67,52.47,14.06l823.76-475.6,236.18,45.28c9.32,1.79,15.31-9.58,8.56-16.26l-176.28-174.44-180.31-312.31c-10.61-18.37-34.1-24.67-52.47-14.06l-904.81,522.39c-18.37,10.61-24.67,34.1-14.06,52.47Z"/><path class="g" d="M474.8,1077.87l206.96,358.47c10.61,18.37,34.1,24.67,52.47,14.06l823.76-475.6,236.18,45.28c9.32,1.79,15.31-9.58,8.56-16.26l-176.28-174.44-180.31-312.31c-10.61-18.37-34.1-24.67-52.47-14.06l-904.81,522.39c-18.37,10.61-24.67,34.1-14.06,52.47Z"/><path class="g" d="M478.8,1077.87l206.96,358.47c10.61,18.37,34.1,24.67,52.47,14.06l823.76-475.6,236.18,45.28c9.32,1.79,15.31-9.58,8.56-16.26l-176.28-174.44-180.31-312.31c-10.61-18.37-34.1-24.67-52.47-14.06l-904.81,522.39c-18.37,10.61-24.67,34.1-14.06,52.47Z"/><path class="g" d="M482.8,1077.87l206.96,358.47c10.61,18.37,34.1,24.67,52.47,14.06l823.76-475.6,236.18,45.28c9.32,1.79,15.31-9.58,8.56-16.26l-176.28-174.44-180.31-312.31c-10.61-18.37-34.1-24.67-52.47-14.06l-904.81,522.39c-18.37,10.61-24.67,34.1-14.06,52.47Z"/><path class="g" d="M486.8,1077.87l206.96,358.47c10.61,18.37,34.1,24.67,52.47,14.06l823.76-475.6,236.18,45.28c9.32,1.79,15.31-9.58,8.56-16.26l-176.28-174.44-180.31-312.31c-10.61-18.37-34.1-24.67-52.47-14.06l-904.81,522.39c-18.37,10.61-24.67,34.1-14.06,52.47Z"/><path class="g" d="M490.8,1077.87l206.96,358.47c10.61,18.37,34.1,24.67,52.47,14.06l823.76-475.6,236.18,45.28c9.32,1.79,15.31-9.58,8.56-16.26l-176.28-174.44-180.31-312.31c-10.61-18.37-34.1-24.67-52.47-14.06l-904.81,522.39c-18.37,10.61-24.67,34.1-14.06,52.47Z"/><path class="e" d="M490.8,1077.87l206.96,358.47c10.61,18.37,34.1,24.67,52.47,14.06l823.76-475.6,236.18,45.28c9.32,1.79,15.31-9.58,8.56-16.26l-176.28-174.44-180.31-312.31c-10.61-18.37-34.1-24.67-52.47-14.06l-904.81,522.39c-18.37,10.61-24.67,34.1-14.06,52.47Z"/><path class="f" d="M1330.82,377.68L1123.86,19.21c-10.61-18.37-34.1-24.67-52.47-14.06L247.63,480.75,11.45,435.47c-9.32-1.79-15.31,9.58-8.56,16.26l176.28,174.44,180.31,312.31c10.61,18.37,34.1,24.67,52.47,14.06l904.81-522.39c18.37-10.61,24.67-34.1,14.06-52.47Z"/><path class="f" d="M1334.82,377.68L1127.86,19.21c-10.61-18.37-34.1-24.67-52.47-14.06L251.63,480.75,15.45,435.47c-9.32-1.79-15.31,9.58-8.56,16.26l176.28,174.44,180.31,312.31c10.61,18.37,34.1,24.67,52.47,14.06l904.81-522.39c18.37-10.61,24.67-34.1,14.06-52.47Z"/><path class="f" d="M1338.82,377.68L1131.86,19.21c-10.61-18.37-34.1-24.67-52.47-14.06L255.63,480.75l-236.18-45.28c-9.32-1.79-15.31,9.58-8.56,16.26l176.28,174.44,180.31,312.31c10.61,18.37,34.1,24.67,52.47,14.06l904.81-522.39c18.37-10.61,24.67-34.1,14.06-52.47Z"/><path class="f" d="M1342.82,377.68L1135.86,19.21c-10.61-18.37-34.1-24.67-52.47-14.06L259.63,480.75l-236.18-45.28c-9.32-1.79-15.31,9.58-8.56,16.26l176.28,174.44,180.31,312.31c10.61,18.37,34.1,24.67,52.47,14.06l904.81-522.39c18.37-10.61,24.67-34.1,14.06-52.47Z"/><path class="f" d="M1346.82,377.68L1139.86,19.21c-10.61-18.37-34.1-24.67-52.47-14.06L263.63,480.75l-236.18-45.28c-9.32-1.79-15.31,9.58-8.56,16.26l176.28,174.44,180.31,312.31c10.61,18.37,34.1,24.67,52.47,14.06l904.81-522.39c18.37-10.61,24.67-34.1,14.06-52.47Z"/><path class="f" d="M1350.82,377.68L1143.86,19.21c-10.61-18.37-34.1-24.67-52.47-14.06L267.63,480.75l-236.18-45.28c-9.32-1.79-15.31,9.58-8.56,16.26l176.28,174.44,180.31,312.31c10.61,18.37,34.1,24.67,52.47,14.06l904.81-522.39c18.37-10.61,24.67-34.1,14.06-52.47Z"/><path class="f" d="M1354.82,377.68L1147.86,19.21c-10.61-18.37-34.1-24.67-52.47-14.06L271.63,480.75l-236.18-45.28c-9.32-1.79-15.31,9.58-8.56,16.26l176.28,174.44,180.31,312.31c10.61,18.37,34.1,24.67,52.47,14.06l904.81-522.39c18.37-10.61,24.67-34.1,14.06-52.47Z"/><path class="f" d="M1358.82,377.68L1151.86,19.21c-10.61-18.37-34.1-24.67-52.47-14.06L275.63,480.75l-236.18-45.28c-9.32-1.79-15.31,9.58-8.56,16.26l176.28,174.44,180.31,312.31c10.61,18.37,34.1,24.67,52.47,14.06l904.81-522.39c18.37-10.61,24.67-34.1,14.06-52.47Z"/><path class="f" d="M1362.82,377.68L1155.86,19.21c-10.61-18.37-34.1-24.67-52.47-14.06L279.63,480.75l-236.18-45.28c-9.32-1.79-15.31,9.58-8.56,16.26l176.28,174.44,180.31,312.31c10.61,18.37,34.1,24.67,52.47,14.06l904.81-522.39c18.37-10.61,24.67-34.1,14.06-52.47Z"/><path class="f" d="M1366.82,377.68L1159.86,19.21c-10.61-18.37-34.1-24.67-52.47-14.06L283.63,480.75l-236.18-45.28c-9.32-1.79-15.31,9.58-8.56,16.26l176.28,174.44,180.31,312.31c10.61,18.37,34.1,24.67,52.47,14.06l904.81-522.39c18.37-10.61,24.67-34.1,14.06-52.47Z"/><path class="f" d="M1370.82,377.68L1163.86,19.21c-10.61-18.37-34.1-24.67-52.47-14.06L287.63,480.75l-236.18-45.28c-9.32-1.79-15.31,9.58-8.56,16.26l176.28,174.44,180.31,312.31c10.61,18.37,34.1,24.67,52.47,14.06l904.81-522.39c18.37-10.61,24.67-34.1,14.06-52.47Z"/><path class="f" d="M1374.82,377.68L1167.86,19.21c-10.61-18.37-34.1-24.67-52.47-14.06L291.63,480.75l-236.18-45.28c-9.32-1.79-15.31,9.58-8.56,16.26l176.28,174.44,180.31,312.31c10.61,18.37,34.1,24.67,52.47,14.06l904.81-522.39c18.37-10.61,24.67-34.1,14.06-52.47Z"/><path class="f" d="M1378.82,377.68L1171.86,19.21c-10.61-18.37-34.1-24.67-52.47-14.06L295.63,480.75l-236.18-45.28c-9.32-1.79-15.31,9.58-8.56,16.26l176.28,174.44,180.31,312.31c10.61,18.37,34.1,24.67,52.47,14.06l904.81-522.39c18.37-10.61,24.67-34.1,14.06-52.47Z"/><path class="d" d="M1378.82,377.68L1171.86,19.21c-10.61-18.37-34.1-24.67-52.47-14.06L295.63,480.75l-236.18-45.28c-9.32-1.79-15.31,9.58-8.56,16.26l176.28,174.44,180.31,312.31c10.61,18.37,34.1,24.67,52.47,14.06l904.81-522.39c18.37-10.61,24.67-34.1,14.06-52.47Z"/><text class="h" transform="translate(1993.81 1314.05)"><tspan x="0" y="0">coreply</tspan></text></g></svg>